<svg id="Group_177386" data-name="Group 177386" xmlns="http://www.w3.org/2000/svg" width="25.609" height="30.474" viewBox="0 0 25.609 30.474">
  <path id="Icon_awesome-apple" data-name="Icon awesome-apple" d="M21.692,18.354a6.351,6.351,0,0,1,3.4-5.769A7.31,7.31,0,0,0,19.331,9.55c-2.415-.191-5.055,1.408-6.021,1.408-1.021,0-3.361-1.34-5.2-1.34-3.8.061-7.831,3.028-7.831,9.062a16.957,16.957,0,0,0,.98,5.524c.871,2.5,4.014,8.62,7.293,8.518,1.714-.041,2.926-1.218,5.157-1.218,2.164,0,3.286,1.218,5.2,1.218,3.307-.048,6.15-5.613,6.98-8.117A6.744,6.744,0,0,1,21.692,18.354ZM17.841,7.183A6.408,6.408,0,0,0,19.474,2.25a7.214,7.214,0,0,0-4.62,2.374,6.508,6.508,0,0,0-1.742,4.892A5.714,5.714,0,0,0,17.841,7.183Z" transform="translate(-0.281 -2.25)" fill="#fff"/>
</svg>
