<svg xmlns="http://www.w3.org/2000/svg" width="177.952" height="177.954" viewBox="0 0 177.952 177.954">
  <g id="Group_955778" data-name="Group 955778" transform="translate(-777.529 -195.031)" opacity="0.17">
    <circle id="Ellipse_47937" data-name="Ellipse 47937" cx="0.055" cy="0.055" r="0.055" transform="translate(836.855 195.222)" fill="#3a1572"/>
    <circle id="Ellipse_47938" data-name="Ellipse 47938" cx="0.137" cy="0.137" r="0.137" transform="translate(846.629 195.14)" fill="#3a1572"/>
    <path id="Path_1366713" data-name="Path 1366713" d="M838.187,195.489a.219.219,0,1,0-.219-.219A.219.219,0,0,0,838.187,195.489Z" transform="translate(18.435 0.006)" fill="#3a1572"/>
    <path id="Path_1366714" data-name="Path 1366714" d="M845.746,195.523a.246.246,0,1,0-.247-.247A.245.245,0,0,0,845.746,195.523Z" transform="translate(20.732 0)" fill="#3a1572"/>
    <path id="Path_1366715" data-name="Path 1366715" d="M853.291,195.489a.219.219,0,1,0-.218-.219A.219.219,0,0,0,853.291,195.489Z" transform="translate(23.042 0.006)" fill="#3a1572"/>
    <path id="Path_1366716" data-name="Path 1366716" d="M860.831,195.422a.164.164,0,1,0-.165-.164A.163.163,0,0,0,860.831,195.422Z" transform="translate(25.359 0.019)" fill="#3a1572"/>
    <circle id="Ellipse_47939" data-name="Ellipse 47939" cx="0.082" cy="0.082" r="0.082" transform="translate(895.963 195.195)" fill="#3a1572"/>
    <circle id="Ellipse_47940" data-name="Ellipse 47940" cx="0.082" cy="0.082" r="0.082" transform="translate(817.116 205.051)" fill="#3a1572"/>
    <circle id="Ellipse_47941" data-name="Ellipse 47941" cx="0.246" cy="0.246" r="0.246" transform="translate(826.808 204.887)" fill="#3a1572"/>
    <path id="Path_1366717" data-name="Path 1366717" d="M823.14,203.345a.465.465,0,1,0-.465-.465A.465.465,0,0,0,823.14,203.345Z" transform="translate(13.77 2.253)" fill="#3a1572"/>
    <path id="Path_1366718" data-name="Path 1366718" d="M830.724,203.514a.6.6,0,1,0-.6-.6A.6.6,0,0,0,830.724,203.514Z" transform="translate(16.042 2.221)" fill="#3a1572"/>
    <path id="Path_1366719" data-name="Path 1366719" d="M838.3,203.614a.683.683,0,1,0-.684-.683A.682.682,0,0,0,838.3,203.614Z" transform="translate(18.326 2.201)" fill="#3a1572"/>
    <path id="Path_1366720" data-name="Path 1366720" d="M845.854,203.648a.711.711,0,1,0-.711-.71A.709.709,0,0,0,845.854,203.648Z" transform="translate(20.624 2.195)" fill="#3a1572"/>
    <path id="Path_1366721" data-name="Path 1366721" d="M853.4,203.614a.683.683,0,1,0-.683-.683A.683.683,0,0,0,853.4,203.614Z" transform="translate(22.934 2.201)" fill="#3a1572"/>
    <path id="Path_1366722" data-name="Path 1366722" d="M860.934,203.514a.6.6,0,1,0-.6-.6A.6.6,0,0,0,860.934,203.514Z" transform="translate(25.256 2.221)" fill="#3a1572"/>
    <path id="Path_1366723" data-name="Path 1366723" d="M868.453,203.345a.465.465,0,1,0-.465-.465A.466.466,0,0,0,868.453,203.345Z" transform="translate(27.592 2.253)" fill="#3a1572"/>
    <path id="Path_1366724" data-name="Path 1366724" d="M875.961,203.109a.273.273,0,1,0-.273-.273A.274.274,0,0,0,875.961,203.109Z" transform="translate(29.94 2.297)" fill="#3a1572"/>
    <circle id="Ellipse_47942" data-name="Ellipse 47942" cx="0.082" cy="0.082" r="0.082" transform="translate(915.675 205.051)" fill="#3a1572"/>
    <circle id="Ellipse_47943" data-name="Ellipse 47943" cx="0.137" cy="0.137" r="0.137" transform="translate(807.205 214.852)" fill="#3a1572"/>
    <path id="Path_1366725" data-name="Path 1366725" d="M808.022,210.83a.41.41,0,1,0-.41-.41A.409.409,0,0,0,808.022,210.83Z" transform="translate(9.176 4.569)" fill="#3a1572"/>
    <circle id="Ellipse_47944" data-name="Ellipse 47944" cx="0.683" cy="0.683" r="0.683" transform="translate(826.371 214.306)" fill="#3a1572"/>
    <circle id="Ellipse_47945" data-name="Ellipse 47945" cx="0.902" cy="0.902" r="0.902" transform="translate(836.008 214.087)" fill="#3a1572"/>
    <path id="Path_1366726" data-name="Path 1366726" d="M830.832,211.639a1.066,1.066,0,1,0-1.065-1.066A1.067,1.067,0,0,0,830.832,211.639Z" transform="translate(15.934 4.415)" fill="#3a1572"/>
    <path id="Path_1366727" data-name="Path 1366727" d="M838.411,211.774a1.175,1.175,0,1,0-1.176-1.176A1.176,1.176,0,0,0,838.411,211.774Z" transform="translate(18.211 4.39)" fill="#3a1572"/>
    <path id="Path_1366728" data-name="Path 1366728" d="M845.969,211.808a1.2,1.2,0,1,0-1.2-1.2A1.2,1.2,0,0,0,845.969,211.808Z" transform="translate(20.509 4.384)" fill="#3a1572"/>
    <path id="Path_1366729" data-name="Path 1366729" d="M853.515,211.774a1.175,1.175,0,1,0-1.175-1.176A1.177,1.177,0,0,0,853.515,211.774Z" transform="translate(22.819 4.39)" fill="#3a1572"/>
    <path id="Path_1366730" data-name="Path 1366730" d="M861.042,211.639a1.066,1.066,0,1,0-1.066-1.066A1.065,1.065,0,0,0,861.042,211.639Z" transform="translate(25.148 4.415)" fill="#3a1572"/>
    <circle id="Ellipse_47946" data-name="Ellipse 47946" cx="0.902" cy="0.902" r="0.902" transform="translate(895.143 214.087)" fill="#3a1572"/>
    <circle id="Ellipse_47947" data-name="Ellipse 47947" cx="0.711" cy="0.711" r="0.711" transform="translate(905.191 214.278)" fill="#3a1572"/>
    <path id="Path_1366731" data-name="Path 1366731" d="M883.551,210.863a.437.437,0,1,0-.437-.437A.438.438,0,0,0,883.551,210.863Z" transform="translate(32.205 4.562)" fill="#3a1572"/>
    <circle id="Ellipse_47948" data-name="Ellipse 47948" cx="0.164" cy="0.164" r="0.164" transform="translate(925.449 214.825)" fill="#3a1572"/>
    <circle id="Ellipse_47949" data-name="Ellipse 47949" cx="0.137" cy="0.137" r="0.137" transform="translate(797.35 224.708)" fill="#3a1572"/>
    <path id="Path_1366732" data-name="Path 1366732" d="M800.483,218.45a.465.465,0,1,0-.465-.466A.465.465,0,0,0,800.483,218.45Z" transform="translate(6.86 6.86)" fill="#3a1572"/>
    <circle id="Ellipse_47950" data-name="Ellipse 47950" cx="0.793" cy="0.793" r="0.793" transform="translate(816.405 224.052)" fill="#3a1572"/>
    <path id="Path_1366733" data-name="Path 1366733" d="M815.735,219.225a1.093,1.093,0,1,0-1.094-1.094A1.093,1.093,0,0,0,815.735,219.225Z" transform="translate(11.32 6.713)" fill="#3a1572"/>
    <path id="Path_1366734" data-name="Path 1366734" d="M823.344,219.529a1.34,1.34,0,1,0-1.339-1.34A1.34,1.34,0,0,0,823.344,219.529Z" transform="translate(13.566 6.655)" fill="#3a1572"/>
    <circle id="Ellipse_47951" data-name="Ellipse 47951" cx="1.53" cy="1.53" r="1.53" transform="translate(845.235 223.314)" fill="#3a1572"/>
    <circle id="Ellipse_47952" data-name="Ellipse 47952" cx="1.64" cy="1.64" r="1.64" transform="translate(854.982 223.205)" fill="#3a1572"/>
    <path id="Path_1366735" data-name="Path 1366735" d="M846.084,219.967a1.695,1.695,0,1,0-1.7-1.7A1.694,1.694,0,0,0,846.084,219.967Z" transform="translate(20.394 6.572)" fill="#3a1572"/>
    <path id="Path_1366736" data-name="Path 1366736" d="M853.623,219.9a1.64,1.64,0,1,0-1.639-1.64A1.641,1.641,0,0,0,853.623,219.9Z" transform="translate(22.71 6.585)" fill="#3a1572"/>
    <path id="Path_1366737" data-name="Path 1366737" d="M861.151,219.764a1.53,1.53,0,1,0-1.531-1.531A1.53,1.53,0,0,0,861.151,219.764Z" transform="translate(25.039 6.611)" fill="#3a1572"/>
    <path id="Path_1366738" data-name="Path 1366738" d="M868.658,219.529a1.34,1.34,0,1,0-1.339-1.34A1.339,1.339,0,0,0,868.658,219.529Z" transform="translate(27.388 6.655)" fill="#3a1572"/>
    <path id="Path_1366739" data-name="Path 1366739" d="M876.159,219.259a1.12,1.12,0,1,0-1.121-1.121A1.121,1.121,0,0,0,876.159,219.259Z" transform="translate(29.742 6.706)" fill="#3a1572"/>
    <circle id="Ellipse_47953" data-name="Ellipse 47953" cx="0.847" cy="0.847" r="0.847" transform="translate(914.91 223.997)" fill="#3a1572"/>
    <path id="Path_1366740" data-name="Path 1366740" d="M891.123,218.516A.519.519,0,1,0,890.6,218,.519.519,0,0,0,891.123,218.516Z" transform="translate(34.49 6.847)" fill="#3a1572"/>
    <circle id="Ellipse_47954" data-name="Ellipse 47954" cx="0.164" cy="0.164" r="0.164" transform="translate(935.305 224.681)" fill="#3a1572"/>
    <circle id="Ellipse_47955" data-name="Ellipse 47955" cx="0.082" cy="0.082" r="0.082" transform="translate(787.548 234.619)" fill="#3a1572"/>
    <path id="Path_1366741" data-name="Path 1366741" d="M792.918,225.935a.41.41,0,1,0-.41-.41A.41.41,0,0,0,792.918,225.935Z" transform="translate(4.569 9.176)" fill="#3a1572"/>
    <circle id="Ellipse_47956" data-name="Ellipse 47956" cx="0.793" cy="0.793" r="0.793" transform="translate(806.55 233.908)" fill="#3a1572"/>
    <path id="Path_1366742" data-name="Path 1366742" d="M808.194,226.844a1.148,1.148,0,1,0-1.147-1.147A1.147,1.147,0,0,0,808.194,226.844Z" transform="translate(9.004 9.004)" fill="#3a1572"/>
    <circle id="Ellipse_47957" data-name="Ellipse 47957" cx="1.476" cy="1.476" r="1.476" transform="translate(825.578 233.225)" fill="#3a1572"/>
    <path id="Path_1366743" data-name="Path 1366743" d="M823.44,227.586a1.749,1.749,0,1,0-1.749-1.749A1.749,1.749,0,0,0,823.44,227.586Z" transform="translate(13.47 8.863)" fill="#3a1572"/>
    <path id="Path_1366744" data-name="Path 1366744" d="M831.043,227.857a1.968,1.968,0,1,0-1.968-1.968A1.968,1.968,0,0,0,831.043,227.857Z" transform="translate(15.723 8.812)" fill="#3a1572"/>
    <path id="Path_1366745" data-name="Path 1366745" d="M838.628,228.025a2.1,2.1,0,1,0-2.1-2.1A2.1,2.1,0,0,0,838.628,228.025Z" transform="translate(17.994 8.78)" fill="#3a1572"/>
    <path id="Path_1366746" data-name="Path 1366746" d="M846.193,228.092a2.159,2.159,0,1,0-2.16-2.158A2.158,2.158,0,0,0,846.193,228.092Z" transform="translate(20.285 8.767)" fill="#3a1572"/>
    <path id="Path_1366747" data-name="Path 1366747" d="M853.732,228.025a2.1,2.1,0,1,0-2.1-2.1A2.1,2.1,0,0,0,853.732,228.025Z" transform="translate(22.602 8.78)" fill="#3a1572"/>
    <path id="Path_1366748" data-name="Path 1366748" d="M861.259,227.891a2,2,0,1,0-2-2A1.995,1.995,0,0,0,861.259,227.891Z" transform="translate(24.931 8.806)" fill="#3a1572"/>
    <path id="Path_1366749" data-name="Path 1366749" d="M868.76,227.62a1.776,1.776,0,1,0-1.776-1.776A1.775,1.775,0,0,0,868.76,227.62Z" transform="translate(27.285 8.857)" fill="#3a1572"/>
    <circle id="Ellipse_47958" data-name="Ellipse 47958" cx="1.503" cy="1.503" r="1.503" transform="translate(904.398 233.197)" fill="#3a1572"/>
    <path id="Path_1366750" data-name="Path 1366750" d="M883.73,226.912a1.2,1.2,0,1,0-1.2-1.2A1.2,1.2,0,0,0,883.73,226.912Z" transform="translate(32.027 8.991)" fill="#3a1572"/>
    <circle id="Ellipse_47959" data-name="Ellipse 47959" cx="0.847" cy="0.847" r="0.847" transform="translate(924.766 233.853)" fill="#3a1572"/>
    <path id="Path_1366751" data-name="Path 1366751" d="M898.663,226a.465.465,0,1,0-.465-.465A.465.465,0,0,0,898.663,226Z" transform="translate(36.806 9.163)" fill="#3a1572"/>
    <circle id="Ellipse_47960" data-name="Ellipse 47960" cx="0.109" cy="0.109" r="0.109" transform="translate(945.216 234.591)" fill="#3a1572"/>
    <path id="Path_1366752" data-name="Path 1366752" d="M785.326,233.285a.246.246,0,1,0-.245-.247A.247.247,0,0,0,785.326,233.285Z" transform="translate(2.304 11.518)" fill="#3a1572"/>
    <path id="Path_1366753" data-name="Path 1366753" d="M792.982,233.824a.683.683,0,1,0-.684-.684A.683.683,0,0,0,792.982,233.824Z" transform="translate(4.505 11.416)" fill="#3a1572"/>
    <path id="Path_1366754" data-name="Path 1366754" d="M800.63,234.33a1.094,1.094,0,1,0-1.094-1.094A1.093,1.093,0,0,0,800.63,234.33Z" transform="translate(6.713 11.32)" fill="#3a1572"/>
    <path id="Path_1366755" data-name="Path 1366755" d="M808.271,234.8a1.476,1.476,0,1,0-1.476-1.476A1.475,1.475,0,0,0,808.271,234.8Z" transform="translate(8.927 11.231)" fill="#3a1572"/>
    <path id="Path_1366756" data-name="Path 1366756" d="M815.907,235.24a1.831,1.831,0,1,0-1.832-1.831A1.831,1.831,0,0,0,815.907,235.24Z" transform="translate(11.147 11.148)" fill="#3a1572"/>
    <path id="Path_1366757" data-name="Path 1366757" d="M823.536,235.645a2.159,2.159,0,1,0-2.16-2.16A2.159,2.159,0,0,0,823.536,235.645Z" transform="translate(13.374 11.071)" fill="#3a1572"/>
    <circle id="Ellipse_47961" data-name="Ellipse 47961" cx="2.405" cy="2.405" r="2.405" transform="translate(844.361 242.151)" fill="#3a1572"/>
    <path id="Path_1366758" data-name="Path 1366758" d="M838.737,236.151a2.569,2.569,0,1,0-2.57-2.57A2.569,2.569,0,0,0,838.737,236.151Z" transform="translate(17.886 10.975)" fill="#3a1572"/>
    <path id="Path_1366759" data-name="Path 1366759" d="M846.308,236.251a2.651,2.651,0,1,0-2.652-2.65A2.65,2.65,0,0,0,846.308,236.251Z" transform="translate(20.17 10.956)" fill="#3a1572"/>
    <path id="Path_1366760" data-name="Path 1366760" d="M853.847,236.185a2.6,2.6,0,1,0-2.6-2.6A2.6,2.6,0,0,0,853.847,236.185Z" transform="translate(22.487 10.969)" fill="#3a1572"/>
    <circle id="Ellipse_47962" data-name="Ellipse 47962" cx="2.432" cy="2.432" r="2.432" transform="translate(883.757 242.124)" fill="#3a1572"/>
    <path id="Path_1366761" data-name="Path 1366761" d="M868.856,235.679a2.187,2.187,0,1,0-2.187-2.187A2.187,2.187,0,0,0,868.856,235.679Z" transform="translate(27.189 11.065)" fill="#3a1572"/>
    <path id="Path_1366762" data-name="Path 1366762" d="M876.331,235.274a1.858,1.858,0,1,0-1.858-1.858A1.857,1.857,0,0,0,876.331,235.274Z" transform="translate(29.57 11.141)" fill="#3a1572"/>
    <path id="Path_1366763" data-name="Path 1366763" d="M883.8,234.836a1.5,1.5,0,1,0-1.5-1.5A1.5,1.5,0,0,0,883.8,234.836Z" transform="translate(31.956 11.224)" fill="#3a1572"/>
    <path id="Path_1366764" data-name="Path 1366764" d="M891.264,234.364a1.121,1.121,0,1,0-1.121-1.121A1.121,1.121,0,0,0,891.264,234.364Z" transform="translate(34.349 11.313)" fill="#3a1572"/>
    <circle id="Ellipse_47963" data-name="Ellipse 47963" cx="0.711" cy="0.711" r="0.711" transform="translate(934.758 243.846)" fill="#3a1572"/>
    <path id="Path_1366765" data-name="Path 1366765" d="M906.176,233.351a.3.3,0,1,0-.3-.3A.3.3,0,0,0,906.176,233.351Z" transform="translate(39.148 11.505)" fill="#3a1572"/>
    <circle id="Ellipse_47964" data-name="Ellipse 47964" cx="0.027" cy="0.027" r="0.027" transform="translate(955.153 244.529)" fill="#3a1572"/>
    <path id="Path_1366766" data-name="Path 1366766" d="M777.73,240.6a.054.054,0,1,0-.055-.055A.054.054,0,0,0,777.73,240.6Z" transform="translate(0.045 13.866)" fill="#3a1572"/>
    <path id="Path_1366767" data-name="Path 1366767" d="M785.377,241.106a.465.465,0,1,0-.465-.465A.464.464,0,0,0,785.377,241.106Z" transform="translate(2.252 13.77)" fill="#3a1572"/>
    <path id="Path_1366768" data-name="Path 1366768" d="M793.033,241.646a.9.9,0,1,0-.9-.9A.9.9,0,0,0,793.033,241.646Z" transform="translate(4.454 13.668)" fill="#3a1572"/>
    <path id="Path_1366769" data-name="Path 1366769" d="M800.687,242.186a1.34,1.34,0,1,0-1.339-1.34A1.34,1.34,0,0,0,800.687,242.186Z" transform="translate(6.655 13.566)" fill="#3a1572"/>
    <path id="Path_1366770" data-name="Path 1366770" d="M808.335,242.692a1.749,1.749,0,1,0-1.749-1.75A1.749,1.749,0,0,0,808.335,242.692Z" transform="translate(8.863 13.47)" fill="#3a1572"/>
    <path id="Path_1366771" data-name="Path 1366771" d="M815.984,243.2a2.159,2.159,0,1,0-2.16-2.16A2.16,2.16,0,0,0,815.984,243.2Z" transform="translate(11.071 13.374)" fill="#3a1572"/>
    <path id="Path_1366772" data-name="Path 1366772" d="M823.619,243.635a2.514,2.514,0,1,0-2.515-2.515A2.514,2.514,0,0,0,823.619,243.635Z" transform="translate(13.291 13.291)" fill="#3a1572"/>
    <path id="Path_1366773" data-name="Path 1366773" d="M831.241,244.006a2.815,2.815,0,1,0-2.815-2.815A2.814,2.814,0,0,0,831.241,244.006Z" transform="translate(15.525 13.221)" fill="#3a1572"/>
    <path id="Path_1366774" data-name="Path 1366774" d="M838.845,244.276a3.034,3.034,0,1,0-3.034-3.034A3.034,3.034,0,0,0,838.845,244.276Z" transform="translate(17.777 13.17)" fill="#3a1572"/>
    <path id="Path_1366775" data-name="Path 1366775" d="M846.416,244.377a3.116,3.116,0,1,0-3.116-3.116A3.116,3.116,0,0,0,846.416,244.377Z" transform="translate(20.061 13.151)" fill="#3a1572"/>
    <path id="Path_1366776" data-name="Path 1366776" d="M853.955,244.31a3.061,3.061,0,1,0-3.06-3.062A3.061,3.061,0,0,0,853.955,244.31Z" transform="translate(22.378 13.164)" fill="#3a1572"/>
    <path id="Path_1366777" data-name="Path 1366777" d="M861.458,244.04a2.842,2.842,0,1,0-2.844-2.842A2.843,2.843,0,0,0,861.458,244.04Z" transform="translate(24.732 13.215)" fill="#3a1572"/>
    <path id="Path_1366778" data-name="Path 1366778" d="M868.939,243.669a2.542,2.542,0,1,0-2.542-2.542A2.542,2.542,0,0,0,868.939,243.669Z" transform="translate(27.106 13.285)" fill="#3a1572"/>
    <path id="Path_1366779" data-name="Path 1366779" d="M876.408,243.231a2.187,2.187,0,1,0-2.186-2.187A2.187,2.187,0,0,0,876.408,243.231Z" transform="translate(29.493 13.368)" fill="#3a1572"/>
    <path id="Path_1366780" data-name="Path 1366780" d="M883.87,242.759a1.8,1.8,0,1,0-1.8-1.8A1.8,1.8,0,0,0,883.87,242.759Z" transform="translate(31.886 13.457)" fill="#3a1572"/>
    <path id="Path_1366781" data-name="Path 1366781" d="M891.321,242.22a1.367,1.367,0,1,0-1.366-1.368A1.367,1.367,0,0,0,891.321,242.22Z" transform="translate(34.292 13.56)" fill="#3a1572"/>
    <path id="Path_1366782" data-name="Path 1366782" d="M898.771,241.679a.929.929,0,1,0-.929-.929A.929.929,0,0,0,898.771,241.679Z" transform="translate(36.698 13.662)" fill="#3a1572"/>
    <path id="Path_1366783" data-name="Path 1366783" d="M906.221,241.14a.492.492,0,1,0-.492-.492A.491.491,0,0,0,906.221,241.14Z" transform="translate(39.103 13.764)" fill="#3a1572"/>
    <path id="Path_1366784" data-name="Path 1366784" d="M913.678,240.634a.082.082,0,1,0,0-.163.082.082,0,1,0,0,.163Z" transform="translate(41.503 13.86)" fill="#3a1572"/>
    <path id="Path_1366785" data-name="Path 1366785" d="M777.749,248.254a.136.136,0,1,0-.137-.136A.136.136,0,0,0,777.749,248.254Z" transform="translate(0.025 16.151)" fill="#3a1572"/>
    <path id="Path_1366786" data-name="Path 1366786" d="M785.409,248.827a.6.6,0,1,0-.6-.6A.6.6,0,0,0,785.409,248.827Z" transform="translate(2.221 16.042)" fill="#3a1572"/>
    <path id="Path_1366787" data-name="Path 1366787" d="M793.071,249.4A1.066,1.066,0,1,0,792,248.335,1.064,1.064,0,0,0,793.071,249.4Z" transform="translate(4.416 15.934)" fill="#3a1572"/>
    <path id="Path_1366788" data-name="Path 1366788" d="M800.732,249.975a1.531,1.531,0,1,0-1.531-1.531A1.531,1.531,0,0,0,800.732,249.975Z" transform="translate(6.61 15.825)" fill="#3a1572"/>
    <path id="Path_1366789" data-name="Path 1366789" d="M808.386,250.514a1.968,1.968,0,1,0-1.968-1.968A1.969,1.969,0,0,0,808.386,250.514Z" transform="translate(8.812 15.723)" fill="#3a1572"/>
    <circle id="Ellipse_47965" data-name="Ellipse 47965" cx="2.405" cy="2.405" r="2.405" transform="translate(824.649 261.863)" fill="#3a1572"/>
    <path id="Path_1366790" data-name="Path 1366790" d="M823.689,251.559a2.815,2.815,0,1,0-2.815-2.815A2.815,2.815,0,0,0,823.689,251.559Z" transform="translate(13.221 15.525)" fill="#3a1572"/>
    <circle id="Ellipse_47966" data-name="Ellipse 47966" cx="3.198" cy="3.198" r="3.198" transform="translate(843.568 261.071)" fill="#3a1572"/>
    <path id="Path_1366791" data-name="Path 1366791" d="M838.947,252.367a3.471,3.471,0,1,0-3.471-3.47A3.47,3.47,0,0,0,838.947,252.367Z" transform="translate(17.675 15.371)" fill="#3a1572"/>
    <path id="Path_1366792" data-name="Path 1366792" d="M846.531,252.536a3.608,3.608,0,1,0-3.608-3.607A3.607,3.607,0,0,0,846.531,252.536Z" transform="translate(19.946 15.339)" fill="#3a1572"/>
    <path id="Path_1366793" data-name="Path 1366793" d="M854.057,252.4a3.5,3.5,0,1,0-3.5-3.5A3.5,3.5,0,0,0,854.057,252.4Z" transform="translate(22.276 15.365)" fill="#3a1572"/>
    <path id="Path_1366794" data-name="Path 1366794" d="M861.547,252.064a3.225,3.225,0,1,0-3.226-3.225A3.225,3.225,0,0,0,861.547,252.064Z" transform="translate(24.643 15.429)" fill="#3a1572"/>
    <path id="Path_1366795" data-name="Path 1366795" d="M869.016,251.626a2.87,2.87,0,1,0-2.87-2.87A2.871,2.871,0,0,0,869.016,251.626Z" transform="translate(27.03 15.512)" fill="#3a1572"/>
    <path id="Path_1366796" data-name="Path 1366796" d="M876.472,251.12a2.459,2.459,0,1,0-2.46-2.459A2.459,2.459,0,0,0,876.472,251.12Z" transform="translate(29.429 15.608)" fill="#3a1572"/>
    <path id="Path_1366797" data-name="Path 1366797" d="M883.915,250.548a2,2,0,1,0-1.994-2A2,2,0,0,0,883.915,250.548Z" transform="translate(31.842 15.716)" fill="#3a1572"/>
    <path id="Path_1366798" data-name="Path 1366798" d="M891.366,250.007a1.558,1.558,0,1,0-1.558-1.557A1.557,1.557,0,0,0,891.366,250.007Z" transform="translate(34.247 15.819)" fill="#3a1572"/>
    <path id="Path_1366799" data-name="Path 1366799" d="M898.816,249.468a1.12,1.12,0,1,0-1.121-1.12A1.121,1.121,0,0,0,898.816,249.468Z" transform="translate(36.653 15.921)" fill="#3a1572"/>
    <path id="Path_1366800" data-name="Path 1366800" d="M906.253,248.861a.628.628,0,1,0-.628-.628A.628.628,0,0,0,906.253,248.861Z" transform="translate(39.072 16.036)" fill="#3a1572"/>
    <path id="Path_1366801" data-name="Path 1366801" d="M913.7,248.321a.191.191,0,0,0,0-.382.191.191,0,1,0,0,.382Z" transform="translate(41.477 16.138)" fill="#3a1572"/>
    <path id="Path_1366802" data-name="Path 1366802" d="M777.768,255.908a.219.219,0,1,0-.219-.219A.219.219,0,0,0,777.768,255.908Z" transform="translate(0.006 18.435)" fill="#3a1572"/>
    <path id="Path_1366803" data-name="Path 1366803" d="M785.428,256.482a.684.684,0,1,0-.682-.684A.684.684,0,0,0,785.428,256.482Z" transform="translate(2.201 18.326)" fill="#3a1572"/>
    <path id="Path_1366804" data-name="Path 1366804" d="M793.1,257.088a1.175,1.175,0,1,0-1.176-1.176A1.176,1.176,0,0,0,793.1,257.088Z" transform="translate(4.39 18.212)" fill="#3a1572"/>
    <circle id="Ellipse_47967" data-name="Ellipse 47967" cx="1.64" cy="1.64" r="1.64" transform="translate(805.702 272.485)" fill="#3a1572"/>
    <path id="Path_1366805" data-name="Path 1366805" d="M808.418,258.235a2.105,2.105,0,1,0-2.1-2.1A2.1,2.1,0,0,0,808.418,258.235Z" transform="translate(8.78 17.994)" fill="#3a1572"/>
    <path id="Path_1366806" data-name="Path 1366806" d="M816.08,258.808a2.57,2.57,0,1,0-2.57-2.57A2.569,2.569,0,0,0,816.08,258.808Z" transform="translate(10.975 17.886)" fill="#3a1572"/>
    <path id="Path_1366807" data-name="Path 1366807" d="M823.74,259.381a3.034,3.034,0,1,0-3.034-3.034A3.033,3.033,0,0,0,823.74,259.381Z" transform="translate(13.17 17.777)" fill="#3a1572"/>
    <path id="Path_1366808" data-name="Path 1366808" d="M831.394,259.921a3.471,3.471,0,1,0-3.47-3.471A3.471,3.471,0,0,0,831.394,259.921Z" transform="translate(15.372 17.675)" fill="#3a1572"/>
    <path id="Path_1366809" data-name="Path 1366809" d="M839.043,260.426a3.881,3.881,0,1,0-3.881-3.881A3.881,3.881,0,0,0,839.043,260.426Z" transform="translate(17.579 17.579)" fill="#3a1572"/>
    <path id="Path_1366810" data-name="Path 1366810" d="M846.64,260.661a4.072,4.072,0,1,0-4.072-4.072A4.072,4.072,0,0,0,846.64,260.661Z" transform="translate(19.838 17.535)" fill="#3a1572"/>
    <path id="Path_1366811" data-name="Path 1366811" d="M854.147,260.426a3.881,3.881,0,1,0-3.881-3.881A3.881,3.881,0,0,0,854.147,260.426Z" transform="translate(22.186 17.579)" fill="#3a1572"/>
    <path id="Path_1366812" data-name="Path 1366812" d="M861.617,259.988a3.526,3.526,0,1,0-3.526-3.526A3.526,3.526,0,0,0,861.617,259.988Z" transform="translate(24.573 17.662)" fill="#3a1572"/>
    <path id="Path_1366813" data-name="Path 1366813" d="M869.067,259.449a3.088,3.088,0,1,0-3.089-3.089A3.088,3.088,0,0,0,869.067,259.449Z" transform="translate(26.979 17.765)" fill="#3a1572"/>
    <path id="Path_1366814" data-name="Path 1366814" d="M876.51,258.874a2.623,2.623,0,1,0-2.623-2.623A2.623,2.623,0,0,0,876.51,258.874Z" transform="translate(29.391 17.873)" fill="#3a1572"/>
    <path id="Path_1366815" data-name="Path 1366815" d="M883.953,258.3a2.159,2.159,0,1,0-2.159-2.159A2.159,2.159,0,0,0,883.953,258.3Z" transform="translate(31.803 17.982)" fill="#3a1572"/>
    <path id="Path_1366816" data-name="Path 1366816" d="M891.4,257.728a1.694,1.694,0,1,0-1.7-1.694A1.694,1.694,0,0,0,891.4,257.728Z" transform="translate(34.215 18.09)" fill="#3a1572"/>
    <path id="Path_1366817" data-name="Path 1366817" d="M898.835,257.121a1.2,1.2,0,1,0-1.2-1.2A1.2,1.2,0,0,0,898.835,257.121Z" transform="translate(36.634 18.205)" fill="#3a1572"/>
    <circle id="Ellipse_47968" data-name="Ellipse 47968" cx="0.738" cy="0.738" r="0.738" transform="translate(944.587 273.386)" fill="#3a1572"/>
    <path id="Path_1366818" data-name="Path 1366818" d="M913.723,255.974a.273.273,0,1,0-.274-.273A.273.273,0,0,0,913.723,255.974Z" transform="translate(41.458 18.423)" fill="#3a1572"/>
    <path id="Path_1366819" data-name="Path 1366819" d="M777.774,263.494a.246.246,0,1,0-.245-.247A.247.247,0,0,0,777.774,263.494Z" transform="translate(0 20.732)" fill="#3a1572"/>
    <circle id="Ellipse_47969" data-name="Ellipse 47969" cx="0.711" cy="0.711" r="0.711" transform="translate(786.92 283.27)" fill="#3a1572"/>
    <path id="Path_1366820" data-name="Path 1366820" d="M793.1,264.674a1.2,1.2,0,1,0-1.2-1.2A1.2,1.2,0,0,0,793.1,264.674Z" transform="translate(4.383 20.509)" fill="#3a1572"/>
    <circle id="Ellipse_47970" data-name="Ellipse 47970" cx="1.694" cy="1.694" r="1.694" transform="translate(805.648 282.286)" fill="#3a1572"/>
    <path id="Path_1366821" data-name="Path 1366821" d="M808.431,265.854a2.159,2.159,0,1,0-2.159-2.16A2.16,2.16,0,0,0,808.431,265.854Z" transform="translate(8.767 20.285)" fill="#3a1572"/>
    <path id="Path_1366822" data-name="Path 1366822" d="M816.1,266.461a2.651,2.651,0,1,0-2.652-2.652A2.652,2.652,0,0,0,816.1,266.461Z" transform="translate(10.956 20.17)" fill="#3a1572"/>
    <circle id="Ellipse_47971" data-name="Ellipse 47971" cx="3.116" cy="3.116" r="3.116" transform="translate(833.794 280.865)" fill="#3a1572"/>
    <path id="Path_1366823" data-name="Path 1366823" d="M831.426,267.641a3.608,3.608,0,1,0-3.607-3.608A3.609,3.609,0,0,0,831.426,267.641Z" transform="translate(15.339 19.947)" fill="#3a1572"/>
    <circle id="Ellipse_47972" data-name="Ellipse 47972" cx="4.072" cy="4.072" r="4.072" transform="translate(852.549 279.908)" fill="#3a1572"/>
    <path id="Path_1366824" data-name="Path 1366824" d="M846.716,268.619a4.4,4.4,0,1,0-4.4-4.4A4.4,4.4,0,0,0,846.716,268.619Z" transform="translate(19.761 19.762)" fill="#3a1572"/>
    <path id="Path_1366825" data-name="Path 1366825" d="M854.2,268.248a4.1,4.1,0,1,0-4.1-4.1A4.1,4.1,0,0,0,854.2,268.248Z" transform="translate(22.135 19.832)" fill="#3a1572"/>
    <path id="Path_1366826" data-name="Path 1366826" d="M861.643,267.675a3.635,3.635,0,1,0-3.636-3.636A3.635,3.635,0,0,0,861.643,267.675Z" transform="translate(24.547 19.94)" fill="#3a1572"/>
    <circle id="Ellipse_47973" data-name="Ellipse 47973" cx="3.17" cy="3.17" r="3.17" transform="translate(892.875 280.81)" fill="#3a1572"/>
    <path id="Path_1366827" data-name="Path 1366827" d="M876.523,266.5a2.679,2.679,0,1,0-2.678-2.679A2.678,2.678,0,0,0,876.523,266.5Z" transform="translate(29.378 20.164)" fill="#3a1572"/>
    <path id="Path_1366828" data-name="Path 1366828" d="M883.966,265.922a2.214,2.214,0,1,0-2.213-2.215A2.215,2.215,0,0,0,883.966,265.922Z" transform="translate(31.79 20.272)" fill="#3a1572"/>
    <path id="Path_1366829" data-name="Path 1366829" d="M891.4,265.315a1.722,1.722,0,1,0-1.723-1.723A1.722,1.722,0,0,0,891.4,265.315Z" transform="translate(34.209 20.387)" fill="#3a1572"/>
    <path id="Path_1366830" data-name="Path 1366830" d="M898.848,264.742a1.257,1.257,0,1,0-1.257-1.258A1.258,1.258,0,0,0,898.848,264.742Z" transform="translate(36.621 20.496)" fill="#3a1572"/>
    <circle id="Ellipse_47974" data-name="Ellipse 47974" cx="0.765" cy="0.765" r="0.765" transform="translate(944.56 283.215)" fill="#3a1572"/>
    <path id="Path_1366831" data-name="Path 1366831" d="M913.729,263.562a.3.3,0,1,0-.3-.3A.3.3,0,0,0,913.729,263.562Z" transform="translate(41.452 20.72)" fill="#3a1572"/>
    <path id="Path_1366832" data-name="Path 1366832" d="M777.768,271.012a.219.219,0,1,0-.219-.218A.219.219,0,0,0,777.768,271.012Z" transform="translate(0.006 23.042)" fill="#3a1572"/>
    <circle id="Ellipse_47975" data-name="Ellipse 47975" cx="0.683" cy="0.683" r="0.683" transform="translate(786.947 293.153)" fill="#3a1572"/>
    <path id="Path_1366833" data-name="Path 1366833" d="M793.1,272.192a1.175,1.175,0,1,0-1.176-1.174A1.175,1.175,0,0,0,793.1,272.192Z" transform="translate(4.39 22.819)" fill="#3a1572"/>
    <circle id="Ellipse_47976" data-name="Ellipse 47976" cx="1.64" cy="1.64" r="1.64" transform="translate(805.702 292.196)" fill="#3a1572"/>
    <path id="Path_1366834" data-name="Path 1366834" d="M808.418,273.339a2.1,2.1,0,1,0-2.1-2.1A2.1,2.1,0,0,0,808.418,273.339Z" transform="translate(8.78 22.602)" fill="#3a1572"/>
    <path id="Path_1366835" data-name="Path 1366835" d="M816.086,273.946a2.6,2.6,0,1,0-2.6-2.6A2.6,2.6,0,0,0,816.086,273.946Z" transform="translate(10.968 22.487)" fill="#3a1572"/>
    <circle id="Ellipse_47977" data-name="Ellipse 47977" cx="3.061" cy="3.061" r="3.061" transform="translate(833.849 290.775)" fill="#3a1572"/>
    <path id="Path_1366836" data-name="Path 1366836" d="M831.4,275.058a3.5,3.5,0,1,0-3.5-3.5A3.5,3.5,0,0,0,831.4,275.058Z" transform="translate(15.365 22.276)" fill="#3a1572"/>
    <path id="Path_1366837" data-name="Path 1366837" d="M839.043,275.53a3.88,3.88,0,1,0-3.881-3.88A3.88,3.88,0,0,0,839.043,275.53Z" transform="translate(17.579 22.186)" fill="#3a1572"/>
    <path id="Path_1366838" data-name="Path 1366838" d="M846.646,275.8a4.1,4.1,0,1,0-4.1-4.1A4.1,4.1,0,0,0,846.646,275.8Z" transform="translate(19.832 22.135)" fill="#3a1572"/>
    <path id="Path_1366839" data-name="Path 1366839" d="M854.16,275.6a3.935,3.935,0,1,0-3.936-3.935A3.935,3.935,0,0,0,854.16,275.6Z" transform="translate(22.173 22.174)" fill="#3a1572"/>
    <path id="Path_1366840" data-name="Path 1366840" d="M861.617,275.092a3.526,3.526,0,1,0-3.526-3.525A3.524,3.524,0,0,0,861.617,275.092Z" transform="translate(24.573 22.269)" fill="#3a1572"/>
    <circle id="Ellipse_47978" data-name="Ellipse 47978" cx="3.088" cy="3.088" r="3.088" transform="translate(892.957 290.748)" fill="#3a1572"/>
    <path id="Path_1366841" data-name="Path 1366841" d="M876.51,273.979a2.624,2.624,0,1,0-2.623-2.623A2.623,2.623,0,0,0,876.51,273.979Z" transform="translate(29.391 22.48)" fill="#3a1572"/>
    <path id="Path_1366842" data-name="Path 1366842" d="M883.953,273.406a2.159,2.159,0,1,0-2.159-2.159A2.16,2.16,0,0,0,883.953,273.406Z" transform="translate(31.803 22.589)" fill="#3a1572"/>
    <circle id="Ellipse_47979" data-name="Ellipse 47979" cx="1.694" cy="1.694" r="1.694" transform="translate(923.919 292.142)" fill="#3a1572"/>
    <path id="Path_1366843" data-name="Path 1366843" d="M898.841,272.26a1.23,1.23,0,1,0-1.229-1.229A1.229,1.229,0,0,0,898.841,272.26Z" transform="translate(36.627 22.806)" fill="#3a1572"/>
    <circle id="Ellipse_47980" data-name="Ellipse 47980" cx="0.738" cy="0.738" r="0.738" transform="translate(944.587 293.098)" fill="#3a1572"/>
    <path id="Path_1366844" data-name="Path 1366844" d="M913.723,271.08a.273.273,0,1,0-.274-.273A.273.273,0,0,0,913.723,271.08Z" transform="translate(41.458 23.029)" fill="#3a1572"/>
    <circle id="Ellipse_47981" data-name="Ellipse 47981" cx="0.164" cy="0.164" r="0.164" transform="translate(777.61 303.528)" fill="#3a1572"/>
    <circle id="Ellipse_47982" data-name="Ellipse 47982" cx="0.601" cy="0.601" r="0.601" transform="translate(787.029 303.091)" fill="#3a1572"/>
    <path id="Path_1366845" data-name="Path 1366845" d="M793.071,279.61A1.066,1.066,0,1,0,792,278.544,1.065,1.065,0,0,0,793.071,279.61Z" transform="translate(4.416 25.148)" fill="#3a1572"/>
    <circle id="Ellipse_47983" data-name="Ellipse 47983" cx="1.53" cy="1.53" r="1.53" transform="translate(805.812 302.162)" fill="#3a1572"/>
    <path id="Path_1366846" data-name="Path 1366846" d="M808.392,280.757a2,2,0,1,0-1.994-2A2,2,0,0,0,808.392,280.757Z" transform="translate(8.806 24.931)" fill="#3a1572"/>
    <circle id="Ellipse_47984" data-name="Ellipse 47984" cx="2.432" cy="2.432" r="2.432" transform="translate(824.621 301.26)" fill="#3a1572"/>
    <path id="Path_1366847" data-name="Path 1366847" d="M823.7,281.8a2.842,2.842,0,1,0-2.842-2.842A2.842,2.842,0,0,0,823.7,281.8Z" transform="translate(13.215 24.733)" fill="#3a1572"/>
    <circle id="Ellipse_47985" data-name="Ellipse 47985" cx="3.225" cy="3.225" r="3.225" transform="translate(843.541 300.467)" fill="#3a1572"/>
    <path id="Path_1366848" data-name="Path 1366848" d="M838.96,282.645a3.526,3.526,0,1,0-3.526-3.526A3.526,3.526,0,0,0,838.96,282.645Z" transform="translate(17.662 24.573)" fill="#3a1572"/>
    <path id="Path_1366849" data-name="Path 1366849" d="M846.537,282.779a3.634,3.634,0,1,0-3.634-3.634A3.635,3.635,0,0,0,846.537,282.779Z" transform="translate(19.94 24.548)" fill="#3a1572"/>
    <path id="Path_1366850" data-name="Path 1366850" d="M854.064,282.645a3.526,3.526,0,1,0-3.525-3.526A3.527,3.527,0,0,0,854.064,282.645Z" transform="translate(22.269 24.573)" fill="#3a1572"/>
    <circle id="Ellipse_47986" data-name="Ellipse 47986" cx="3.252" cy="3.252" r="3.252" transform="translate(882.937 300.44)" fill="#3a1572"/>
    <path id="Path_1366851" data-name="Path 1366851" d="M869.016,281.835a2.87,2.87,0,1,0-2.87-2.87A2.871,2.871,0,0,0,869.016,281.835Z" transform="translate(27.03 24.726)" fill="#3a1572"/>
    <circle id="Ellipse_47987" data-name="Ellipse 47987" cx="2.46" cy="2.46" r="2.46" transform="translate(903.442 301.232)" fill="#3a1572"/>
    <path id="Path_1366852" data-name="Path 1366852" d="M883.921,280.791a2.023,2.023,0,1,0-2.021-2.023A2.023,2.023,0,0,0,883.921,280.791Z" transform="translate(31.835 24.924)" fill="#3a1572"/>
    <circle id="Ellipse_47988" data-name="Ellipse 47988" cx="1.585" cy="1.585" r="1.585" transform="translate(924.028 302.107)" fill="#3a1572"/>
    <path id="Path_1366853" data-name="Path 1366853" d="M898.816,279.678a1.121,1.121,0,1,0-1.121-1.121A1.122,1.122,0,0,0,898.816,279.678Z" transform="translate(36.653 25.135)" fill="#3a1572"/>
    <circle id="Ellipse_47989" data-name="Ellipse 47989" cx="0.656" cy="0.656" r="0.656" transform="translate(944.669 303.036)" fill="#3a1572"/>
    <circle id="Ellipse_47990" data-name="Ellipse 47990" cx="0.191" cy="0.191" r="0.191" transform="translate(954.989 303.501)" fill="#3a1572"/>
    <circle id="Ellipse_47991" data-name="Ellipse 47991" cx="0.082" cy="0.082" r="0.082" transform="translate(777.692 313.466)" fill="#3a1572"/>
    <path id="Path_1366854" data-name="Path 1366854" d="M785.377,286.42a.465.465,0,1,0-.465-.465A.464.464,0,0,0,785.377,286.42Z" transform="translate(2.252 27.592)" fill="#3a1572"/>
    <circle id="Ellipse_47992" data-name="Ellipse 47992" cx="0.902" cy="0.902" r="0.902" transform="translate(796.584 312.646)" fill="#3a1572"/>
    <circle id="Ellipse_47993" data-name="Ellipse 47993" cx="1.339" cy="1.339" r="1.339" transform="translate(806.003 312.209)" fill="#3a1572"/>
    <circle id="Ellipse_47994" data-name="Ellipse 47994" cx="1.776" cy="1.776" r="1.776" transform="translate(815.422 311.771)" fill="#3a1572"/>
    <circle id="Ellipse_47995" data-name="Ellipse 47995" cx="2.186" cy="2.186" r="2.186" transform="translate(824.867 311.362)" fill="#3a1572"/>
    <circle id="Ellipse_47996" data-name="Ellipse 47996" cx="2.542" cy="2.542" r="2.542" transform="translate(834.368 311.006)" fill="#3a1572"/>
    <path id="Path_1366855" data-name="Path 1366855" d="M831.254,289.387a2.87,2.87,0,1,0-2.87-2.87A2.869,2.869,0,0,0,831.254,289.387Z" transform="translate(15.512 27.03)" fill="#3a1572"/>
    <path id="Path_1366856" data-name="Path 1366856" d="M838.858,289.658a3.088,3.088,0,1,0-3.089-3.089A3.089,3.089,0,0,0,838.858,289.658Z" transform="translate(17.764 26.979)" fill="#3a1572"/>
    <circle id="Ellipse_47997" data-name="Ellipse 47997" cx="3.17" cy="3.17" r="3.17" transform="translate(863.307 310.378)" fill="#3a1572"/>
    <path id="Path_1366857" data-name="Path 1366857" d="M853.962,289.658a3.088,3.088,0,1,0-3.088-3.089A3.089,3.089,0,0,0,853.962,289.658Z" transform="translate(22.372 26.979)" fill="#3a1572"/>
    <path id="Path_1366858" data-name="Path 1366858" d="M861.464,289.387a2.87,2.87,0,1,0-2.87-2.87A2.869,2.869,0,0,0,861.464,289.387Z" transform="translate(24.726 27.03)" fill="#3a1572"/>
    <path id="Path_1366859" data-name="Path 1366859" d="M868.952,289.051a2.6,2.6,0,1,0-2.6-2.6A2.6,2.6,0,0,0,868.952,289.051Z" transform="translate(27.094 27.094)" fill="#3a1572"/>
    <path id="Path_1366860" data-name="Path 1366860" d="M876.414,288.579a2.214,2.214,0,1,0-2.213-2.215A2.214,2.214,0,0,0,876.414,288.579Z" transform="translate(29.487 27.183)" fill="#3a1572"/>
    <path id="Path_1366861" data-name="Path 1366861" d="M883.877,288.106a1.831,1.831,0,1,0-1.831-1.831A1.832,1.832,0,0,0,883.877,288.106Z" transform="translate(31.88 27.273)" fill="#3a1572"/>
    <circle id="Ellipse_47998" data-name="Ellipse 47998" cx="1.394" cy="1.394" r="1.394" transform="translate(924.219 312.154)" fill="#3a1572"/>
    <circle id="Ellipse_47999" data-name="Ellipse 47999" cx="0.957" cy="0.957" r="0.957" transform="translate(934.512 312.591)" fill="#3a1572"/>
    <path id="Path_1366862" data-name="Path 1366862" d="M906.227,286.488a.519.519,0,1,0-.518-.519A.519.519,0,0,0,906.227,286.488Z" transform="translate(39.097 27.579)" fill="#3a1572"/>
    <circle id="Ellipse_48000" data-name="Ellipse 48000" cx="0.082" cy="0.082" r="0.082" transform="translate(955.099 313.466)" fill="#3a1572"/>
    <circle id="Ellipse_48001" data-name="Ellipse 48001" cx="0.273" cy="0.273" r="0.273" transform="translate(787.357 323.131)" fill="#3a1572"/>
    <circle id="Ellipse_48002" data-name="Ellipse 48002" cx="0.711" cy="0.711" r="0.711" transform="translate(796.776 322.693)" fill="#3a1572"/>
    <circle id="Ellipse_48003" data-name="Ellipse 48003" cx="1.121" cy="1.121" r="1.121" transform="translate(806.221 322.283)" fill="#3a1572"/>
    <circle id="Ellipse_48004" data-name="Ellipse 48004" cx="1.503" cy="1.503" r="1.503" transform="translate(815.695 321.901)" fill="#3a1572"/>
    <path id="Path_1366863" data-name="Path 1366863" d="M815.913,295.693a1.858,1.858,0,1,0-1.858-1.858A1.859,1.859,0,0,0,815.913,295.693Z" transform="translate(11.141 29.57)" fill="#3a1572"/>
    <path id="Path_1366864" data-name="Path 1366864" d="M823.542,296.1a2.187,2.187,0,1,0-2.186-2.186A2.186,2.186,0,0,0,823.542,296.1Z" transform="translate(13.368 29.493)" fill="#3a1572"/>
    <circle id="Ellipse_48005" data-name="Ellipse 48005" cx="2.46" cy="2.46" r="2.46" transform="translate(844.306 320.944)" fill="#3a1572"/>
    <path id="Path_1366865" data-name="Path 1366865" d="M838.749,296.636a2.624,2.624,0,1,0-2.624-2.623A2.623,2.623,0,0,0,838.749,296.636Z" transform="translate(17.873 29.391)" fill="#3a1572"/>
    <path id="Path_1366866" data-name="Path 1366866" d="M846.314,296.7a2.679,2.679,0,1,0-2.678-2.678A2.678,2.678,0,0,0,846.314,296.7Z" transform="translate(20.164 29.378)" fill="#3a1572"/>
    <path id="Path_1366867" data-name="Path 1366867" d="M853.853,296.636a2.624,2.624,0,1,0-2.623-2.623A2.624,2.624,0,0,0,853.853,296.636Z" transform="translate(22.48 29.391)" fill="#3a1572"/>
    <path id="Path_1366868" data-name="Path 1366868" d="M861.368,296.434a2.459,2.459,0,1,0-2.46-2.459A2.459,2.459,0,0,0,861.368,296.434Z" transform="translate(24.822 29.429)" fill="#3a1572"/>
    <path id="Path_1366869" data-name="Path 1366869" d="M868.862,296.131a2.214,2.214,0,1,0-2.215-2.213A2.214,2.214,0,0,0,868.862,296.131Z" transform="translate(27.183 29.487)" fill="#3a1572"/>
    <path id="Path_1366870" data-name="Path 1366870" d="M876.344,295.76a1.913,1.913,0,1,0-1.913-1.913A1.913,1.913,0,0,0,876.344,295.76Z" transform="translate(29.557 29.557)" fill="#3a1572"/>
    <circle id="Ellipse_48006" data-name="Ellipse 48006" cx="1.53" cy="1.53" r="1.53" transform="translate(914.227 321.873)" fill="#3a1572"/>
    <path id="Path_1366871" data-name="Path 1366871" d="M891.27,294.816a1.148,1.148,0,1,0-1.148-1.147A1.147,1.147,0,0,0,891.27,294.816Z" transform="translate(34.343 29.736)" fill="#3a1572"/>
    <circle id="Ellipse_48007" data-name="Ellipse 48007" cx="0.765" cy="0.765" r="0.765" transform="translate(934.704 322.639)" fill="#3a1572"/>
    <path id="Path_1366872" data-name="Path 1366872" d="M906.183,293.8a.328.328,0,1,0-.328-.328A.329.329,0,0,0,906.183,293.8Z" transform="translate(39.142 29.927)" fill="#3a1572"/>
    <circle id="Ellipse_48008" data-name="Ellipse 48008" cx="0.027" cy="0.027" r="0.027" transform="translate(955.153 323.377)" fill="#3a1572"/>
    <circle id="Ellipse_48009" data-name="Ellipse 48009" cx="0.082" cy="0.082" r="0.082" transform="translate(787.548 333.178)" fill="#3a1572"/>
    <circle id="Ellipse_48010" data-name="Ellipse 48010" cx="0.437" cy="0.437" r="0.437" transform="translate(797.049 332.823)" fill="#3a1572"/>
    <circle id="Ellipse_48011" data-name="Ellipse 48011" cx="0.847" cy="0.847" r="0.847" transform="translate(806.495 332.413)" fill="#3a1572"/>
    <path id="Path_1366873" data-name="Path 1366873" d="M808.207,302.435a1.2,1.2,0,1,0-1.2-1.2A1.2,1.2,0,0,0,808.207,302.435Z" transform="translate(8.991 32.027)" fill="#3a1572"/>
    <circle id="Ellipse_48012" data-name="Ellipse 48012" cx="1.503" cy="1.503" r="1.503" transform="translate(825.551 331.757)" fill="#3a1572"/>
    <path id="Path_1366874" data-name="Path 1366874" d="M823.453,303.177a1.8,1.8,0,1,0-1.8-1.8A1.8,1.8,0,0,0,823.453,303.177Z" transform="translate(13.457 31.886)" fill="#3a1572"/>
    <path id="Path_1366875" data-name="Path 1366875" d="M831.049,303.414a2,2,0,1,0-2-2A2,2,0,0,0,831.049,303.414Z" transform="translate(15.716 31.842)" fill="#3a1572"/>
    <path id="Path_1366876" data-name="Path 1366876" d="M838.641,303.615a2.158,2.158,0,1,0-2.16-2.159A2.158,2.158,0,0,0,838.641,303.615Z" transform="translate(17.982 31.803)" fill="#3a1572"/>
    <path id="Path_1366877" data-name="Path 1366877" d="M846.205,303.683a2.213,2.213,0,1,0-2.213-2.213A2.213,2.213,0,0,0,846.205,303.683Z" transform="translate(20.272 31.791)" fill="#3a1572"/>
    <path id="Path_1366878" data-name="Path 1366878" d="M853.744,303.615a2.158,2.158,0,1,0-2.159-2.159A2.159,2.159,0,0,0,853.744,303.615Z" transform="translate(22.589 31.803)" fill="#3a1572"/>
    <path id="Path_1366879" data-name="Path 1366879" d="M861.266,303.448a2.023,2.023,0,1,0-2.023-2.023A2.023,2.023,0,0,0,861.266,303.448Z" transform="translate(24.924 31.835)" fill="#3a1572"/>
    <path id="Path_1366880" data-name="Path 1366880" d="M868.773,303.211a1.831,1.831,0,1,0-1.831-1.831A1.831,1.831,0,0,0,868.773,303.211Z" transform="translate(27.273 31.88)" fill="#3a1572"/>
    <circle id="Ellipse_48013" data-name="Ellipse 48013" cx="1.53" cy="1.53" r="1.53" transform="translate(904.371 331.729)" fill="#3a1572"/>
    <path id="Path_1366881" data-name="Path 1366881" d="M883.736,302.469a1.229,1.229,0,1,0-1.229-1.229A1.23,1.23,0,0,0,883.736,302.469Z" transform="translate(32.02 32.021)" fill="#3a1572"/>
    <circle id="Ellipse_48014" data-name="Ellipse 48014" cx="0.875" cy="0.875" r="0.875" transform="translate(924.738 332.385)" fill="#3a1572"/>
    <circle id="Ellipse_48015" data-name="Ellipse 48015" cx="0.492" cy="0.492" r="0.492" transform="translate(934.977 332.768)" fill="#3a1572"/>
    <circle id="Ellipse_48016" data-name="Ellipse 48016" cx="0.109" cy="0.109" r="0.109" transform="translate(945.216 333.15)" fill="#3a1572"/>
    <circle id="Ellipse_48017" data-name="Ellipse 48017" cx="0.164" cy="0.164" r="0.164" transform="translate(797.322 342.952)" fill="#3a1572"/>
    <circle id="Ellipse_48018" data-name="Ellipse 48018" cx="0.519" cy="0.519" r="0.519" transform="translate(806.823 342.596)" fill="#3a1572"/>
    <circle id="Ellipse_48019" data-name="Ellipse 48019" cx="0.847" cy="0.847" r="0.847" transform="translate(816.351 342.268)" fill="#3a1572"/>
    <path id="Path_1366882" data-name="Path 1366882" d="M815.741,309.887a1.12,1.12,0,1,0-1.121-1.121A1.121,1.121,0,0,0,815.741,309.887Z" transform="translate(11.313 34.35)" fill="#3a1572"/>
    <path id="Path_1366883" data-name="Path 1366883" d="M823.35,310.19a1.366,1.366,0,1,0-1.366-1.366A1.366,1.366,0,0,0,823.35,310.19Z" transform="translate(13.56 34.292)" fill="#3a1572"/>
    <circle id="Ellipse_48020" data-name="Ellipse 48020" cx="1.558" cy="1.558" r="1.558" transform="translate(845.208 341.558)" fill="#3a1572"/>
    <circle id="Ellipse_48021" data-name="Ellipse 48021" cx="1.694" cy="1.694" r="1.694" transform="translate(854.927 341.421)" fill="#3a1572"/>
    <path id="Path_1366884" data-name="Path 1366884" d="M846.09,310.629a1.722,1.722,0,1,0-1.721-1.723A1.721,1.721,0,0,0,846.09,310.629Z" transform="translate(20.387 34.209)" fill="#3a1572"/>
    <path id="Path_1366885" data-name="Path 1366885" d="M853.636,310.6a1.695,1.695,0,1,0-1.694-1.7A1.7,1.7,0,0,0,853.636,310.6Z" transform="translate(22.697 34.215)" fill="#3a1572"/>
    <circle id="Ellipse_48022" data-name="Ellipse 48022" cx="1.585" cy="1.585" r="1.585" transform="translate(884.604 341.531)" fill="#3a1572"/>
    <path id="Path_1366886" data-name="Path 1366886" d="M868.671,310.223a1.394,1.394,0,1,0-1.394-1.394A1.393,1.393,0,0,0,868.671,310.223Z" transform="translate(27.375 34.286)" fill="#3a1572"/>
    <path id="Path_1366887" data-name="Path 1366887" d="M876.165,309.921a1.148,1.148,0,1,0-1.147-1.148A1.148,1.148,0,0,0,876.165,309.921Z" transform="translate(29.736 34.343)" fill="#3a1572"/>
    <circle id="Ellipse_48023" data-name="Ellipse 48023" cx="0.875" cy="0.875" r="0.875" transform="translate(914.883 342.241)" fill="#3a1572"/>
    <circle id="Ellipse_48024" data-name="Ellipse 48024" cx="0.547" cy="0.547" r="0.547" transform="translate(925.067 342.569)" fill="#3a1572"/>
    <circle id="Ellipse_48025" data-name="Ellipse 48025" cx="0.191" cy="0.191" r="0.191" transform="translate(935.278 342.924)" fill="#3a1572"/>
    <circle id="Ellipse_48026" data-name="Ellipse 48026" cx="0.164" cy="0.164" r="0.164" transform="translate(807.178 352.808)" fill="#3a1572"/>
    <path id="Path_1366888" data-name="Path 1366888" d="M808.035,316.63a.465.465,0,1,0-.465-.465A.465.465,0,0,0,808.035,316.63Z" transform="translate(9.163 36.807)" fill="#3a1572"/>
    <circle id="Ellipse_48027" data-name="Ellipse 48027" cx="0.711" cy="0.711" r="0.711" transform="translate(826.343 352.261)" fill="#3a1572"/>
    <circle id="Ellipse_48028" data-name="Ellipse 48028" cx="0.929" cy="0.929" r="0.929" transform="translate(835.981 352.042)" fill="#3a1572"/>
    <path id="Path_1366889" data-name="Path 1366889" d="M830.845,317.439a1.12,1.12,0,1,0-1.12-1.12A1.121,1.121,0,0,0,830.845,317.439Z" transform="translate(15.921 36.653)" fill="#3a1572"/>
    <path id="Path_1366890" data-name="Path 1366890" d="M838.417,317.54a1.2,1.2,0,1,0-1.2-1.2A1.2,1.2,0,0,0,838.417,317.54Z" transform="translate(18.205 36.634)" fill="#3a1572"/>
    <path id="Path_1366891" data-name="Path 1366891" d="M845.982,317.608a1.257,1.257,0,1,0-1.257-1.257A1.256,1.256,0,0,0,845.982,317.608Z" transform="translate(20.496 36.621)" fill="#3a1572"/>
    <path id="Path_1366892" data-name="Path 1366892" d="M853.527,317.574a1.23,1.23,0,1,0-1.229-1.229A1.23,1.23,0,0,0,853.527,317.574Z" transform="translate(22.806 36.628)" fill="#3a1572"/>
    <path id="Path_1366893" data-name="Path 1366893" d="M861.055,317.439a1.12,1.12,0,1,0-1.121-1.12A1.119,1.119,0,0,0,861.055,317.439Z" transform="translate(25.135 36.653)" fill="#3a1572"/>
    <path id="Path_1366894" data-name="Path 1366894" d="M868.568,317.237a.957.957,0,1,0-.957-.957A.957.957,0,0,0,868.568,317.237Z" transform="translate(27.477 36.692)" fill="#3a1572"/>
    <circle id="Ellipse_48029" data-name="Ellipse 48029" cx="0.765" cy="0.765" r="0.765" transform="translate(905.136 352.206)" fill="#3a1572"/>
    <path id="Path_1366895" data-name="Path 1366895" d="M883.564,316.663a.491.491,0,1,0-.492-.491A.49.49,0,0,0,883.564,316.663Z" transform="translate(32.193 36.8)" fill="#3a1572"/>
    <circle id="Ellipse_48030" data-name="Ellipse 48030" cx="0.191" cy="0.191" r="0.191" transform="translate(925.422 352.78)" fill="#3a1572"/>
    <circle id="Ellipse_48031" data-name="Ellipse 48031" cx="0.027" cy="0.027" r="0.027" transform="translate(935.442 352.944)" fill="#3a1572"/>
    <circle id="Ellipse_48032" data-name="Ellipse 48032" cx="0.109" cy="0.109" r="0.109" transform="translate(817.089 362.718)" fill="#3a1572"/>
    <path id="Path_1366896" data-name="Path 1366896" d="M815.549,323.979a.3.3,0,1,0-.3-.3A.3.3,0,0,0,815.549,323.979Z" transform="translate(11.505 39.148)" fill="#3a1572"/>
    <path id="Path_1366897" data-name="Path 1366897" d="M823.146,324.216a.492.492,0,1,0-.492-.492A.492.492,0,0,0,823.146,324.216Z" transform="translate(13.764 39.104)" fill="#3a1572"/>
    <path id="Path_1366898" data-name="Path 1366898" d="M830.73,324.385a.629.629,0,1,0-.628-.629A.629.629,0,0,0,830.73,324.385Z" transform="translate(16.036 39.072)" fill="#3a1572"/>
    <circle id="Ellipse_48033" data-name="Ellipse 48033" cx="0.738" cy="0.738" r="0.738" transform="translate(855.884 362.09)" fill="#3a1572"/>
    <circle id="Ellipse_48034" data-name="Ellipse 48034" cx="0.765" cy="0.765" r="0.765" transform="translate(865.712 362.062)" fill="#3a1572"/>
    <path id="Path_1366899" data-name="Path 1366899" d="M853.412,324.519a.738.738,0,1,0-.737-.737A.738.738,0,0,0,853.412,324.519Z" transform="translate(22.921 39.046)" fill="#3a1572"/>
    <path id="Path_1366900" data-name="Path 1366900" d="M860.946,324.418a.656.656,0,1,0-.656-.655A.655.655,0,0,0,860.946,324.418Z" transform="translate(25.244 39.065)" fill="#3a1572"/>
    <path id="Path_1366901" data-name="Path 1366901" d="M868.466,324.25a.519.519,0,1,0-.519-.519A.519.519,0,0,0,868.466,324.25Z" transform="translate(27.579 39.097)" fill="#3a1572"/>
    <path id="Path_1366902" data-name="Path 1366902" d="M875.973,324.013a.328.328,0,1,0-.327-.328A.327.327,0,0,0,875.973,324.013Z" transform="translate(29.927 39.142)" fill="#3a1572"/>
    <circle id="Ellipse_48035" data-name="Ellipse 48035" cx="0.109" cy="0.109" r="0.109" transform="translate(915.648 362.718)" fill="#3a1572"/>
    <circle id="Ellipse_48036" data-name="Ellipse 48036" cx="0.027" cy="0.027" r="0.027" transform="translate(827.027 372.656)" fill="#3a1572"/>
    <circle id="Ellipse_48037" data-name="Ellipse 48037" cx="0.082" cy="0.082" r="0.082" transform="translate(836.828 372.601)" fill="#3a1572"/>
    <path id="Path_1366903" data-name="Path 1366903" d="M830.628,331.4a.191.191,0,1,0,0-.382.191.191,0,0,0,0,.382Z" transform="translate(16.138 41.478)" fill="#3a1572"/>
    <path id="Path_1366904" data-name="Path 1366904" d="M838.2,331.5a.273.273,0,1,0-.274-.274A.274.274,0,0,0,838.2,331.5Z" transform="translate(18.422 41.458)" fill="#3a1572"/>
    <path id="Path_1366905" data-name="Path 1366905" d="M845.758,331.533a.3.3,0,1,0-.3-.3A.3.3,0,0,0,845.758,331.533Z" transform="translate(20.72 41.452)" fill="#3a1572"/>
    <path id="Path_1366906" data-name="Path 1366906" d="M853.3,331.5a.273.273,0,1,0-.273-.274A.274.274,0,0,0,853.3,331.5Z" transform="translate(23.03 41.458)" fill="#3a1572"/>
    <path id="Path_1366907" data-name="Path 1366907" d="M860.838,331.4a.191.191,0,1,0-.192-.192A.192.192,0,0,0,860.838,331.4Z" transform="translate(25.352 41.478)" fill="#3a1572"/>
    <circle id="Ellipse_48038" data-name="Ellipse 48038" cx="0.082" cy="0.082" r="0.082" transform="translate(895.963 372.601)" fill="#3a1572"/>
    <circle id="Ellipse_48039" data-name="Ellipse 48039" cx="0.027" cy="0.027" r="0.027" transform="translate(905.874 372.656)" fill="#3a1572"/>
  </g>
</svg>
