<svg id="surface1" xmlns="http://www.w3.org/2000/svg" width="27.47" height="27.47" viewBox="0 0 27.47 27.47">
  <path id="Path_181" data-name="Path 181" d="M31.2,15.044H30.1v-.056H17.735v5.494H25.5a8.249,8.249,0,1,1-2.3-8.9L27.087,7.7A13.7,13.7,0,1,0,31.2,15.044Z" transform="translate(-4 -4)" fill="#fff"/>
  <path id="Path_182" data-name="Path 182" d="M6.3,11.382l4.539,3.328A8.267,8.267,0,0,1,24.02,11.622l3.906-3.906A13.782,13.782,0,0,0,6.3,11.382Z" transform="translate(-4.713 -4)" fill="#fff"/>
  <path id="Path_183" data-name="Path 183" d="M18.489,39.065a13.752,13.752,0,0,0,9.26-3.585l-4.275-3.617A8.264,8.264,0,0,1,10.7,28.055L6.2,31.523A13.8,13.8,0,0,0,18.489,39.065Z" transform="translate(-4.679 -11.594)" fill="#fff"/>
  <path id="Path_184" data-name="Path 184" d="M37.54,20.057H36.429V20H24v5.524h7.806a8.323,8.323,0,0,1-2.824,3.846h0l4.275,3.617a13.369,13.369,0,0,0,4.55-10.225A13.778,13.778,0,0,0,37.54,20.057Z" transform="translate(-10.339 -9.101)" fill="#fff"/>
</svg>
