<svg xmlns="http://www.w3.org/2000/svg" width="2969.989" height="928.01" viewBox="0 0 2969.989 928.01">
  <g id="colored_logo" transform="translate(0 -0.006)">
    <path id="Path_494369" data-name="Path 494369" d="M3237.81,1557.42c2.65,4.04.68,7.32-4.39,7.32h-97.34c-5.07,0-11.33-3.28-13.98-7.32l-63.37-96.84v.12c-13.4-20.3-23.45,0-23.45,0v-.5l-63.55,97.22c-2.65,4.04-8.9,7.32-13.96,7.32h-97.23c-5.07,0-7.03-3.28-4.39-7.32l125.49-191.97h-.6c5.93-6.38,6.2-12,4.87-16.14l-4.65-7.11-.22-.19h.09l-109.32-167.06c-2.65-4.04-.69-7.32,4.38-7.32h97.34c5.07,0,11.33,3.28,13.98,7.32l47.77,72.99v-1.18c13.4,19.91,23.45,0,23.45,0v.76l47.44-72.57c2.65-4.04,8.9-7.32,13.96-7.32h97.23c5.07,0,7.03,3.28,4.39,7.32l-115.57,176.78a13.258,13.258,0,0,0-.02,4.53Zm-438.55,7.32h-77.7a7.326,7.326,0,0,1-7.33-7.32V1174.95a7.326,7.326,0,0,1,7.33-7.32h77.7a7.332,7.332,0,0,1,7.33,7.32v382.47a7.332,7.332,0,0,1-7.33,7.32Zm0-451.33h-77.7a7.328,7.328,0,0,1-7.33-7.33v-76.2a7.326,7.326,0,0,1,7.33-7.32h77.7a7.332,7.332,0,0,1,7.33,7.32v76.2a7.334,7.334,0,0,1-7.33,7.33ZM2655.59,1350.8v206.62a7.326,7.326,0,0,1-7.33,7.32h-77.69a7.326,7.326,0,0,1-7.33-7.32V1332.01c0-7.34,2.4-49.38-14.66-63.11-18.16-14.6-51.14-15.32-64.51-14.95v.13h-3.53c-1.49.08-2.33.15-2.33.15v-.15H2422.5c-19.05,0-30.78,11.73-30.78,42.5v260.84a7.326,7.326,0,0,1-7.33,7.32h-77.7a7.326,7.326,0,0,1-7.33-7.32V1236.5c0-19.05.73-68.87,68.9-68.87h115.81v.04c174.36,1.93,171.52,89.29,171.52,115.9v67.23ZM2082.4,1564.38v.36c-3.24,0-6.41-.03-9.53-.09-3.13.06-6.29.09-9.53.09v-.36c-161.01-6.08-158.32-89.52-158.32-115.4V1174.95a7.326,7.326,0,0,1,7.33-7.32h77.69a7.326,7.326,0,0,1,7.33,7.32v225.67c0,7.33-5.33,48.93,13.2,60.08,14.91,8.98,37.02,11.45,52.77,11.97v-.39s6.6.52,16.16.31c1.85-.08,2.9-.16,2.9-.16v.07c15.3-.55,36.57-3.08,51.31-11.96,18.52-11.17,14.66-52.84,14.66-60.18V1174.95a7.326,7.326,0,0,1,7.33-7.32h77.69a7.326,7.326,0,0,1,7.33,7.32V1448.8C2240.72,1474.72,2243.42,1558.29,2082.4,1564.38Zm-230.16-4.03h-82.09c-89.43,0-80.63-60.08-80.63-79.13V1271.97c-.5-4.42-3.13-9.09-14.66-9.09h-32.25a7.328,7.328,0,0,1-7.33-7.33v-77.66a7.328,7.328,0,0,1,7.33-7.33h32.25c11.53,0,14.16-4.68,14.66-9.09v-93.49a7.326,7.326,0,0,1,7.33-7.32h77.7a7.332,7.332,0,0,1,7.33,7.32v97.81c1.78,2.69,5.5,4.77,13.19,4.77h55.71a7.334,7.334,0,0,1,7.33,7.33v77.66a7.334,7.334,0,0,1-7.33,7.33h-55.71c-7.69,0-11.41,2.08-13.19,4.77v191.29c.5,4.41,3.12,9.09,14.66,9.09h55.7a7.328,7.328,0,0,1,7.33,7.33v77.66a7.328,7.328,0,0,1-7.33,7.33Z" transform="translate(-269 -775.969)" fill="#fff" fill-rule="evenodd"/>
    <path id="Shape_7_copy" data-name="Shape 7 copy" d="M1430.04,1563.28h-58.63c-11.37,0-16.13-1.47-16.13,21.98v96.71c0,10.63,2.93,21.98-19.06,21.98h-54.24c-8.79,0-16.12,1.47-16.12-14.65V1192.54c0-26.01,5.13-21.98,20.52-21.98h174.45c34.45,0,150.99,15.39,150.99,175.84S1543.41,1563.28,1430.04,1563.28Zm27.86-301.87h-96.76a7.334,7.334,0,0,0-7.33,7.33v194.89a7.334,7.334,0,0,0,7.33,7.33h77.7c65.48,0,86.49-43.47,86.49-115.76S1478.91,1261.41,1457.9,1261.41Zm-417.8,301.87H981.459c-11.361,0-16.126-1.47-16.126,21.98v96.71c0,10.63,2.932,21.98-19.057,21.98H892.035c-8.8,0-16.125,1.47-16.125-14.65V1192.54c0-26.01,5.13-21.98,20.523-21.98H1070.88c34.45,0,151,15.39,151,175.84s-68.41,216.88-181.78,216.88Zm27.85-301.87H971.2a7.328,7.328,0,0,0-7.329,7.331V1463.63a7.328,7.328,0,0,0,7.329,7.33h77.693c65.48,0,86.5-43.47,86.5-115.76s-46.433-93.79-67.443-93.79ZM813.994,1560.35H739.336c-21.226,0-22.324-2.57-26.349-14.66s-29.644-95.25-35.134-111.36-9.149-16.12-23.421-16.12H497.69c-14.293,0-17.958,0-23.455,16.12s-31.152,99.27-35.183,111.36-5.131,14.66-26.388,14.66H337.9c-16.492,0-16.833-2.66-13.194-13.19,9.529-26.38,141.466-452.8,152.461-479.18,10.793-25.89,18.812-44.71,96.751-45.39v-.03c.754,0,1.457.01,2.2.01s1.446-.01,2.2-.01v.03c77.823.68,85.831,19.5,96.608,45.39,10.979,26.38,142.728,452.8,152.243,479.18C830.8,1557.69,830.462,1560.35,813.994,1560.35Zm-177.129-262.3c-2.562-10.26-47.82-153.14-52.7-168.52-2-6.31-4.086-9.17-5.848-10.35v.09a3.368,3.368,0,0,0-1.6-.76.548.548,0,0,0-.125-.02.937.937,0,0,0-.168-.02.8.8,0,0,0-.154-.01,1.237,1.237,0,0,0-.315,0,.782.782,0,0,0-.152.01,1,1,0,0,0-.174.02.43.43,0,0,0-.111.02,3.385,3.385,0,0,0-1.6.76v-.09c-1.765,1.17-3.854,4.03-5.861,10.35-4.887,15.38-50.21,158.26-52.775,168.52s-4.032,16.12,8.8,16.12h104C640.891,1314.17,639.427,1308.3,636.865,1298.05ZM440.518,1032.81c-30.495,57.67-72.7,162.36-102.265,268.7C296.394,1452.06,269,1601.38,269,1601.38s55.706-310.66,86.492-446.94S459.575,821.8,528.476,786.631,653.083,802.75,714.653,949.287,817.271,1281.93,817.271,1281.93C732.887,964.374,571.324,785.466,440.518,1032.81Z" transform="translate(-269 -775.969)" fill="#fff" fill-rule="evenodd"/>
  </g>
</svg>
