<svg xmlns="http://www.w3.org/2000/svg" width="70.474" height="17.167" viewBox="0 0 70.474 17.167">
  <g id="Group_955738" data-name="Group 955738" transform="translate(23)">
    <path id="Path_1344825" data-name="Path 1344825" d="M679.115,1110.02l-4.781-4.739c-.3-.3-.6-.6-.9-.9a.952.952,0,0,1-.06-1.483.925.925,0,0,1,1.423.08c1.205,1.187,2.4,2.386,3.6,3.579q1.889,1.88,3.779,3.758c.6.6.623,1.1.05,1.669q-3.681,3.677-7.376,7.34c-.4.4-.889.641-1.337.226a1.69,1.69,0,0,1-.378-1.093c-.009-.212.282-.459.475-.653q2.595-2.607,5.2-5.2c.094-.094.177-.2.41-.459H614.144c-.2,0-.395,0-.592,0-.962-.008-1.383-.3-1.383-.969s.417-.96,1.384-.961h65.462Z" transform="translate(-635.169 -1102.602)" fill="#dbfd00"/>
  </g>
</svg>
