<svg xmlns="http://www.w3.org/2000/svg" xmlns:xlink="http://www.w3.org/1999/xlink" width="108" height="108.001" viewBox="0 0 108 108.001">
  <defs>
    <filter id="Subtraction_1" x="0" y="0" width="108" height="108.001" filterUnits="userSpaceOnUse">
      <feOffset dy="3" input="SourceAlpha"/>
      <feGaussianBlur stdDeviation="3" result="blur"/>
      <feFlood flood-opacity="0.161"/>
      <feComposite operator="in" in2="blur"/>
      <feComposite in="SourceGraphic"/>
    </filter>
  </defs>
  <g transform="matrix(1, 0, 0, 1, 0, 0)" filter="url(#Subtraction_1)">
    <path id="Subtraction_1-2" data-name="Subtraction 1" d="M-3038,6254a44.727,44.727,0,0,1-17.516-3.536,44.854,44.854,0,0,1-14.3-9.644,44.849,44.849,0,0,1-9.644-14.3A44.722,44.722,0,0,1-3083,6209a44.721,44.721,0,0,1,3.536-17.516,44.849,44.849,0,0,1,9.644-14.3,44.838,44.838,0,0,1,14.3-9.644A44.716,44.716,0,0,1-3038,6164a44.72,44.72,0,0,1,17.517,3.537,44.838,44.838,0,0,1,14.3,9.644,44.855,44.855,0,0,1,9.644,14.3A44.721,44.721,0,0,1-2993,6209a44.722,44.722,0,0,1-3.536,17.517,44.855,44.855,0,0,1-9.644,14.3,44.854,44.854,0,0,1-14.3,9.644A44.731,44.731,0,0,1-3038,6254Zm-3.36-58.787a6.02,6.02,0,0,0-6.015,6.009v15.554a6.019,6.019,0,0,0,6.015,6.01,5.968,5.968,0,0,0,3.224-.959l12.133-7.777a5.975,5.975,0,0,0,2.762-5.051,5.975,5.975,0,0,0-2.762-5.05l-12.133-7.777A5.97,5.97,0,0,0-3041.36,6195.213Z" transform="translate(3092 -6158)" fill="#fff"/>
  </g>
</svg>
