<svg xmlns="http://www.w3.org/2000/svg" width="43.252" height="43.266" viewBox="0 0 43.252 43.266">
  <path id="Vector" d="M42.292,18.908l-2.941-3.417a4.793,4.793,0,0,1-1.016-2.725V9.089a4.191,4.191,0,0,0-4.174-4.174H30.484A4.851,4.851,0,0,1,27.759,3.9L24.342.957a4.358,4.358,0,0,0-5.45,0L15.5,3.92a4.989,4.989,0,0,1-2.725.995H9.029A4.191,4.191,0,0,0,4.855,9.089v3.7a4.921,4.921,0,0,1-.995,2.7L.941,18.929a4.355,4.355,0,0,0,0,5.407l2.92,3.439a4.921,4.921,0,0,1,.995,2.7v3.7a4.191,4.191,0,0,0,4.174,4.174h3.742A4.851,4.851,0,0,1,15.5,39.367l3.417,2.941a4.358,4.358,0,0,0,5.45,0l3.417-2.941a4.793,4.793,0,0,1,2.725-1.016h3.677a4.191,4.191,0,0,0,4.174-4.174V30.5a4.851,4.851,0,0,1,1.016-2.725l2.941-3.417A4.387,4.387,0,0,0,42.292,18.908ZM30.614,17.545,20.168,27.991a1.619,1.619,0,0,1-2.293,0l-5.234-5.234a1.621,1.621,0,0,1,2.293-2.293l4.088,4.088,9.3-9.3a1.621,1.621,0,1,1,2.293,2.293Z" fill="#2081e2"/>
</svg>
